<svg xmlns="http://www.w3.org/2000/svg" width="187.981" height="174.396" viewBox="0 0 187.981 174.396">
  <g id="Grupo_25" data-name="Grupo 25" transform="translate(-512 -1666.79)">
    <g id="computadora" transform="translate(512 1666.79)">
      <path id="Trazado_28" data-name="Trazado 28" d="M174.213,18.5H13.768A13.784,13.784,0,0,0,0,32.268v121.16A13.784,13.784,0,0,0,13.768,167.2H72.533l-3.314,11.6a12.728,12.728,0,0,1-11.393,8.594H37.082a2.754,2.754,0,1,0,0,5.507H150.9a2.754,2.754,0,1,0,0-5.507H130.155a12.728,12.728,0,0,1-11.393-8.594l-3.314-11.6h58.765a13.784,13.784,0,0,0,13.768-13.768V32.268A13.784,13.784,0,0,0,174.213,18.5ZM13.768,24.007H174.213a8.27,8.27,0,0,1,8.261,8.261v96.377H5.507V32.268A8.27,8.27,0,0,1,13.768,24.007Zm99.7,156.3a16.8,16.8,0,0,0,4.227,7.08H70.288a16.8,16.8,0,0,0,4.227-7.08L78.261,167.2H109.72Zm60.746-18.62H13.768a8.27,8.27,0,0,1-8.261-8.261V134.152H182.473v19.275A8.27,8.27,0,0,1,174.213,161.689Z" transform="translate(0 -18.5)" fill="#8bc6d8"/>
      <path id="Trazado_29" data-name="Trazado 29" d="M32.754,142.123H193.2a2.753,2.753,0,0,0,2.754-2.754V51.254A2.753,2.753,0,0,0,193.2,48.5H32.754A2.753,2.753,0,0,0,30,51.254V89.8a2.754,2.754,0,1,0,5.507,0v-35.8H190.445v82.609H35.507v-35.8a2.754,2.754,0,0,0-5.507,0V139.37A2.753,2.753,0,0,0,32.754,142.123Z" transform="translate(-18.986 -37.486)" fill="#8bc6d8"/>
      <path id="Trazado_30" data-name="Trazado 30" d="M241.761,348.5a8.261,8.261,0,1,0,8.261,8.261A8.27,8.27,0,0,0,241.761,348.5Zm0,11.014a2.754,2.754,0,1,1,2.754-2.754A2.757,2.757,0,0,1,241.761,359.515Z" transform="translate(-147.77 -227.341)" fill="#8bc6d8"/>
    </g>
    <g id="Capa_2" data-name="Capa 2" transform="translate(567.526 1702.365)">
      <g id="f" transform="translate(0)">
        <path id="Trazado_16" data-name="Trazado 16" d="M749.826,423.232c-.289,16.9-25.43,16.9-25.716,0C724.4,406.33,749.539,406.335,749.826,423.232Zm-13.093-5.414c-7.116.122-7.115,10.707,0,10.827C743.848,428.524,743.847,417.939,736.732,417.818Z" transform="translate(-692.771 -392.789)" fill="#8bc6d8"/>
        <path id="Trazado_17" data-name="Trazado 17" d="M687,.9h8.829V43.98H687Z" transform="translate(-657.267 -0.861)" fill="#8bc6d8"/>
        <path id="o" d="M1386.765,414.958a12.858,12.858,0,1,1-12.858-12.858A12.857,12.857,0,0,1,1386.765,414.958Zm-12.858-5.414a5.414,5.414,0,1,0,5.414,5.414,5.414,5.414,0,0,0-5.414-5.414Z" transform="translate(-1302.145 -384.698)" fill="#8bc6d8"/>
        <g id="i" transform="translate(17.826 0.031)">
          <rect id="Rectángulo_31" data-name="Rectángulo 31" width="8.829" height="25.697" transform="translate(0 17.4)" fill="#8bc6d8"/>
          <ellipse id="Elipse_4" data-name="Elipse 4" cx="4.39" cy="4.39" rx="4.39" ry="4.39" transform="translate(0.025)" fill="#8bc6d8"/>
        </g>
        <path id="fletxa_complet" data-name="fletxa complet" d="M1977.295,323.235l-8.517-3.873a.332.332,0,0,0-.436.163.326.326,0,0,0-.019.219l2.529,9.544a.328.328,0,0,0,.307.244.253.253,0,0,0,.1-.013.33.33,0,0,0,.228-.213l1.479-4.321,4.285-1.134a.331.331,0,0,0,.234-.4A.336.336,0,0,0,1977.295,323.235Z" transform="translate(-1883.126 -305.513)" fill="#8bc6d8"/>
        <g id="fletxa_complet-2" data-name="fletxa complet" transform="translate(80.096 8.727)">
          <path id="Trazado_18" data-name="Trazado 18" d="M1938.262,204.828a.33.33,0,0,1-.4-.236l-.674-2.544a.33.33,0,0,1,.638-.169l.674,2.544a.331.331,0,0,1-.235.405Z" transform="translate(-1933.429 -201.633)" fill="#8bc6d8"/>
          <path id="Trazado_19" data-name="Trazado 19" d="M1853.64,335.46l-2.547.675a.33.33,0,0,1-.169-.638l2.544-.674a.33.33,0,0,1,.173.638Z" transform="translate(-1850.678 -329.047)" fill="#8bc6d8"/>
          <path id="Trazado_20" data-name="Trazado 20" d="M1865.876,260.075a.341.341,0,0,1-.251-.032l-2.274-1.323a.332.332,0,0,1,.333-.573l2.276,1.326a.327.327,0,0,1,.119.45.355.355,0,0,1-.2.153Z" transform="translate(-1862.645 -255.657)" fill="#8bc6d8"/>
          <path id="Trazado_21" data-name="Trazado 21" d="M1999.3,217.047a.33.33,0,0,1-.371-.483l1.322-2.277a.329.329,0,1,1,.569.331l-1.321,2.278A.331.331,0,0,1,1999.3,217.047Z" transform="translate(-1992.467 -213.582)" fill="#8bc6d8"/>
        </g>
        <path id="Trazado_22" data-name="Trazado 22" d="M8.858,43.158H0V9.583S.116.034,8.858,0h5.914V8.779l-4.665-.017s-1.224.109-1.154,1.7l-.095,6.848h5.87l.043,7.5-5.914-.1Z" fill="#8bc6d8"/>
      </g>
    </g>
  </g>
</svg>
