<svg xmlns="http://www.w3.org/2000/svg" width="195.499" height="195.5" viewBox="0 0 195.499 195.5">
  <g id="eficiencia" transform="translate(0)">
    <path id="Trazado_31" data-name="Trazado 31" d="M208.409,88.251a2.863,2.863,0,0,0,2.864-2.864V81.34a2.864,2.864,0,1,0-5.727,0v4.048A2.863,2.863,0,0,0,208.409,88.251Z" transform="translate(-127.061 -48.511)" fill="#8bc6d8"/>
    <path id="Trazado_32" data-name="Trazado 32" d="M292.789,123.444l2.863-2.863a2.864,2.864,0,0,0-4.05-4.05l-2.863,2.863a2.864,2.864,0,0,0,4.05,4.05Z" transform="translate(-177.971 -71.518)" fill="#8bc6d8"/>
    <path id="Trazado_33" data-name="Trazado 33" d="M116.532,295.65a2.864,2.864,0,0,0,4.05,0l2.863-2.863a2.864,2.864,0,0,0-4.05-4.05l-2.863,2.863a2.864,2.864,0,0,0,0,4.05Z" transform="translate(-71.518 -177.969)" fill="#8bc6d8"/>
    <path id="Trazado_34" data-name="Trazado 34" d="M85.388,211.272a2.864,2.864,0,0,0,0-5.728H81.34a2.864,2.864,0,0,0,0,5.728Z" transform="translate(-48.512 -127.06)" fill="#8bc6d8"/>
    <path id="Trazado_35" data-name="Trazado 35" d="M119.395,123.444a2.864,2.864,0,1,0,4.05-4.05l-2.863-2.863a2.864,2.864,0,1,0-4.05,4.05Z" transform="translate(-71.518 -71.518)" fill="#8bc6d8"/>
    <path id="Trazado_36" data-name="Trazado 36" d="M205.545,167.617a2.865,2.865,0,0,0,5.041,1.86l10.349-12.115a2.864,2.864,0,1,0-4.355-3.72l-5.307,6.213v-19.34a2.864,2.864,0,1,0-5.727,0v27.1Z" transform="translate(-127.061 -85.092)" fill="#8bc6d8"/>
    <path id="Trazado_37" data-name="Trazado 37" d="M192.934,135.35l-7.451-6.537a1.8,1.8,0,0,1-.57-.957l-2.554-11.192a1.8,1.8,0,0,1,.1-1.109l3.877-9.123a7.527,7.527,0,0,0-1.043-7.645l-7.46-9.355a7.524,7.524,0,0,0-7.221-2.718L162.4,88.188c.19-2.276.294-4.566.294-6.841a81.006,81.006,0,0,0-22.318-55.97,2.864,2.864,0,1,0-4.155,3.942,75.3,75.3,0,0,1,20.746,52.028c0,1.838-.075,3.686-.209,5.528l-7.353-3.541a1.792,1.792,0,0,1-.805-.769l-4.556-8.424a63.112,63.112,0,1,0-122.4,27.7,2.864,2.864,0,0,0,5.417-1.858A57.392,57.392,0,1,1,137.587,69.907c-.484-.021,1.451,0-12.292-.011a7.527,7.527,0,0,0-6.628,3.951l-4.715,8.719a1.8,1.8,0,0,1-.8.769L102.8,88.315a1.806,1.806,0,0,1-1.1.151l-9.756-1.75a7.53,7.53,0,0,0-7.222,2.718l-7.458,9.353a7.525,7.525,0,0,0-1.044,7.645l3.877,9.122a1.8,1.8,0,0,1,.1,1.11l-2.554,11.192a1.8,1.8,0,0,1-.57.957l-7.451,6.537a7.528,7.528,0,0,0-1.515,1.831,57.353,57.353,0,0,1-36.48-27.174,2.864,2.864,0,1,0-4.959,2.865,63.072,63.072,0,0,0,40.618,30l2.621,11.483a7.545,7.545,0,0,0,.686,1.845A75.621,75.621,0,0,1,81.348,5.728,74.847,74.847,0,0,1,128.06,21.876a2.864,2.864,0,1,0,3.541-4.5A80.519,80.519,0,0,0,81.348,0a81.348,81.348,0,0,0,0,162.7c1.14,0,2.314-.03,3.493-.08a1.794,1.794,0,0,1,.869.593l7.157,8.975a1.792,1.792,0,0,1,.392,1.042l.465,9.9a7.526,7.526,0,0,0,4.257,6.435l10.779,5.191a7.53,7.53,0,0,0,7.686-.684l8.031-5.81a1.8,1.8,0,0,1,1.058-.342h11.48a1.8,1.8,0,0,1,1.059.343l8.031,5.81a7.525,7.525,0,0,0,7.685.684l10.779-5.191a7.527,7.527,0,0,0,4.257-6.435l.464-9.9a1.8,1.8,0,0,1,.392-1.042l.936-1.173a2.864,2.864,0,1,0-4.477-3.572l-.937,1.174a7.494,7.494,0,0,0-1.635,4.344l-.465,9.9a1.806,1.806,0,0,1-1.021,1.544l-10.779,5.191a1.807,1.807,0,0,1-1.844-.164l-8.03-5.81a7.489,7.489,0,0,0-4.417-1.431h-11.48a7.487,7.487,0,0,0-4.416,1.43l-8.031,5.81a1.806,1.806,0,0,1-1.844.164L100.466,184.4a1.805,1.805,0,0,1-1.021-1.544l-.465-9.9a7.492,7.492,0,0,0-1.636-4.346l-7.157-8.975c-2.408-3.02-4.92-2.5-13.421-5.218a1.807,1.807,0,0,1-1.278-1.339l-2.662-11.664a1.806,1.806,0,0,1,.57-1.761l7.451-6.537a7.491,7.491,0,0,0,2.377-3.988l2.554-11.192a7.485,7.485,0,0,0-.411-4.624l-3.877-9.123a1.8,1.8,0,0,1,.25-1.834L89.2,93.005a1.809,1.809,0,0,1,1.732-.652l9.756,1.75a7.486,7.486,0,0,0,4.6-.628l10.344-4.981a7.487,7.487,0,0,0,3.358-3.2L123.7,76.57a1.8,1.8,0,0,1,1.59-.948h11.964a1.8,1.8,0,0,1,1.59.948l4.715,8.718a7.484,7.484,0,0,0,3.359,3.205c9.45,4.163,11.046,6.308,14.943,5.609l9.757-1.75a1.8,1.8,0,0,1,1.732.652l7.459,9.354a1.8,1.8,0,0,1,.25,1.834l-3.877,9.122a7.486,7.486,0,0,0-.411,4.624l2.554,11.192a7.489,7.489,0,0,0,2.377,3.987l7.451,6.537a1.805,1.805,0,0,1,.57,1.761l-2.663,11.664a1.8,1.8,0,0,1-1.277,1.339l-9.55,2.656a7.548,7.548,0,0,0-1.988.882,2.864,2.864,0,0,0,3.047,4.85,1.826,1.826,0,0,1,.476-.214l9.55-2.656a7.526,7.526,0,0,0,5.326-5.582l2.663-11.664a7.524,7.524,0,0,0-2.376-7.34Z" transform="translate(-0.001 0)" fill="#8bc6d8"/>
    <path id="Trazado_38" data-name="Trazado 38" d="M300.7,335.012a26.625,26.625,0,1,0-26.625-26.632v0h0v0A26.656,26.656,0,0,0,300.7,335.012Zm-2.864-47.323v6.437h-3.36a2.864,2.864,0,0,0,0,5.728H300.7a2.863,2.863,0,0,0,2.864-2.864v-9.3A20.937,20.937,0,0,1,321.4,305.522H309.289v-2.078a2.864,2.864,0,1,0-5.727,0v4.941a2.863,2.863,0,0,0,2.864,2.864H321.4a20.937,20.937,0,0,1-17.834,17.833v-5.592h2.1a2.864,2.864,0,1,0,0-5.728H300.7a2.863,2.863,0,0,0-2.864,2.864v8.456A20.937,20.937,0,0,1,280,311.253l9.188.01h0a2.864,2.864,0,0,0,0-5.727l-9.2-.01a20.937,20.937,0,0,1,17.834-17.837Z" transform="translate(-169.424 -174.175)" fill="#8bc6d8"/>
  </g>
</svg>
