<svg xmlns="http://www.w3.org/2000/svg" width="175.257" height="185.09" viewBox="0 0 175.257 185.09">
  <g id="grafico" transform="translate(-13.601)">
    <g id="Grupo_9" data-name="Grupo 9" transform="translate(13.601 53.016)">
      <g id="Grupo_8" data-name="Grupo 8">
        <path id="Trazado_48" data-name="Trazado 48" d="M185.243,271.5h-7.929V156.372a9.729,9.729,0,0,0-9.718-9.718H149.874a9.729,9.729,0,0,0-9.718,9.718V271.5H120.023V208.533a9.729,9.729,0,0,0-9.718-9.718H92.582a9.729,9.729,0,0,0-9.718,9.718V271.5H62.731V238.889a9.729,9.729,0,0,0-9.718-9.718H35.291a9.729,9.729,0,0,0-9.718,9.718V271.5H17.216a3.615,3.615,0,0,0,0,7.23H185.243a3.615,3.615,0,1,0,0-7.23ZM55.5,271.5H32.8V238.889A2.491,2.491,0,0,1,35.29,236.4H53.013a2.491,2.491,0,0,1,2.488,2.488V271.5Zm57.292,0h-22.7V208.533a2.491,2.491,0,0,1,2.488-2.488H110.3a2.491,2.491,0,0,1,2.488,2.488Zm57.292,0h-22.7V156.372a2.491,2.491,0,0,1,2.488-2.488H167.6a2.491,2.491,0,0,1,2.488,2.488V271.5Z" transform="translate(-13.601 -146.654)" fill="#8bc6d8"/>
      </g>
    </g>
    <g id="Grupo_11" data-name="Grupo 11" transform="translate(44.598)">
      <g id="Grupo_10" data-name="Grupo 10">
        <path id="Trazado_49" data-name="Trazado 49" d="M232.053,3.8A3.6,3.6,0,0,0,228.26.009c-.058,0-.116-.009-.175-.009H206.214a3.615,3.615,0,1,0,0,7.23h13.5L183.982,42.968,170.5,29.491a3.615,3.615,0,0,0-5.112,0L100.4,94.479a3.615,3.615,0,0,0,5.112,5.112l62.431-62.432,13.477,13.477a3.616,3.616,0,0,0,5.113,0l38.294-38.293V24.565a3.615,3.615,0,0,0,7.23,0V3.977C232.062,3.918,232.056,3.86,232.053,3.8Z" transform="translate(-99.346)" fill="#8bc6d8"/>
      </g>
    </g>
    <g id="Grupo_13" data-name="Grupo 13" transform="translate(32.413 106.033)">
      <g id="Grupo_12" data-name="Grupo 12">
        <circle id="Elipse_6" data-name="Elipse 6" cx="3.615" cy="3.615" r="3.615" fill="#8bc6d8"/>
      </g>
    </g>
  </g>
</svg>
