<svg xmlns="http://www.w3.org/2000/svg" width="66.978" height="206" viewBox="0 0 66.978 206">
  <g id="Grupo_27" data-name="Grupo 27" transform="translate(-428.522 -2050.5)">
    <line id="Línea_22" data-name="Línea 22" y2="202" transform="translate(493.5 2052.5)" fill="none" stroke="#96d3e4" stroke-linecap="round" stroke-width="4"/>
    <path id="fletxa_complet" data-name="fletxa complet" d="M2007.971,336.562l-37.6-17.1a1.464,1.464,0,0,0-1.924.72,1.43,1.43,0,0,0-.082.967l11.166,42.142a1.45,1.45,0,0,0,1.356,1.078,1.116,1.116,0,0,0,.422-.056,1.452,1.452,0,0,0,1.005-.942l6.532-19.079,18.919-5.007a1.462,1.462,0,0,0,1.036-1.781A1.484,1.484,0,0,0,2007.971,336.562Z" transform="matrix(-0.07, 0.998, -0.998, -0.07, 932.134, 137.399)" fill="#303030"/>
  </g>
</svg>
