<svg id="Capa_2" data-name="Capa 2" xmlns="http://www.w3.org/2000/svg" width="91.635" height="41.908" viewBox="0 0 91.635 41.908">
  <g id="f">
    <path id="Trazado_16" data-name="Trazado 16" d="M749.081,422.865c-.28,16.412-24.693,16.41-24.971,0C724.39,406.453,748.8,406.458,749.081,422.865Zm-12.714-5.257c-6.91.118-6.909,10.4,0,10.514C743.277,428,743.276,417.725,736.367,417.608Z" transform="translate(-693.678 -393.303)" fill="#fff"/>
    <path id="Trazado_17" data-name="Trazado 17" d="M687,.9h8.573V42.732H687Z" transform="translate(-658.128 -0.862)" fill="#fff"/>
    <path id="o" d="M1386.021,414.586a12.485,12.485,0,1,1-12.486-12.486A12.485,12.485,0,0,1,1386.021,414.586Zm-12.486-5.257a5.257,5.257,0,1,0,5.257,5.257,5.257,5.257,0,0,0-5.257-5.257Z" transform="translate(-1303.85 -385.201)" fill="#fff"/>
    <g id="i" transform="translate(17.31 0.03)">
      <rect id="Rectángulo_31" data-name="Rectángulo 31" width="8.574" height="24.953" transform="translate(0 16.896)" fill="#fff"/>
      <circle id="Elipse_4" data-name="Elipse 4" cx="4.263" cy="4.263" r="4.263" transform="translate(0.024)" fill="#fff"/>
    </g>
    <path id="fletxa_complet" data-name="fletxa complet" d="M1977.035,323.122l-8.27-3.761a.322.322,0,0,0-.423.158.313.313,0,0,0-.018.213L1970.78,329a.319.319,0,0,0,.3.237.245.245,0,0,0,.093-.012.32.32,0,0,0,.221-.207l1.436-4.2,4.161-1.1a.321.321,0,0,0,.228-.392A.326.326,0,0,0,1977.035,323.122Z" transform="translate(-1885.593 -305.913)" fill="#fff"/>
    <g id="fletxa_complet-2" data-name="fletxa complet" transform="translate(77.777 8.474)">
      <path id="Trazado_18" data-name="Trazado 18" d="M1938.23,204.736a.321.321,0,0,1-.392-.229l-.654-2.47a.321.321,0,0,1,.62-.164l.654,2.471a.321.321,0,0,1-.228.393Z" transform="translate(-1933.538 -201.633)" fill="#fff"/>
      <path id="Trazado_19" data-name="Trazado 19" d="M1853.554,335.442l-2.473.655a.321.321,0,1,1-.164-.62l2.47-.654a.321.321,0,1,1,.168.619Z" transform="translate(-1850.678 -329.214)" fill="#fff"/>
      <path id="Trazado_20" data-name="Trazado 20" d="M1865.8,260.018a.331.331,0,0,1-.244-.032l-2.208-1.284a.322.322,0,1,1,.323-.557l2.21,1.287a.318.318,0,0,1,.116.437.345.345,0,0,1-.2.148Z" transform="translate(-1862.661 -255.728)" fill="#fff"/>
      <path id="Trazado_21" data-name="Trazado 21" d="M1999.284,216.962a.32.32,0,0,1-.391-.225.325.325,0,0,1,.031-.244l1.284-2.211a.32.32,0,1,1,.553.322l-1.283,2.212A.321.321,0,0,1,1999.284,216.962Z" transform="translate(-1992.653 -213.598)" fill="#fff"/>
    </g>
    <path id="Trazado_22" data-name="Trazado 22" d="M8.6,41.908H0V9.306S.112.033,8.6,0h5.742V8.525l-4.53-.016s-1.189.106-1.12,1.655L8.6,16.814h5.7l.042,7.285L8.6,24Z" fill="#fff"/>
  </g>
</svg>
