<svg xmlns="http://www.w3.org/2000/svg" viewBox="0 0 775.27 258.54"><defs><style>.cls-1{fill:#fff;}</style></defs><g id="Capa_2" data-name="Capa 2"><g id="Capa_1-2" data-name="Capa 1"><path class="cls-1" d="M260.54,93.47q22.82,22.82,22.81,67.34v96.78H235.51V160.81q0-22.08-8.46-32.75t-26.5-10.67q-17.66,0-26.31,10.67t-8.64,32.75v96.78H117.76V160.81q0-22.08-8.47-32.75T82.8,117.39q-17.67,0-26.31,10.67t-8.65,32.75v96.78H0V160.81q0-44.52,22.82-67.34t60-22.82a85.88,85.88,0,0,1,33.67,6.44,62.85,62.85,0,0,1,25.21,19,62.75,62.75,0,0,1,25.2-19,85.88,85.88,0,0,1,33.67-6.44Q237.72,70.65,260.54,93.47Z"/><path class="cls-1" d="M327.5,0h47.84V134.32L436.43,73.6h61.09L427.6,144.25l81.69,113.34H455.93l-60.72-83.16L375.34,194.3v63.29H327.5Z"/><path class="cls-1" d="M560.07,250.36q-18-7.17-28.88-21.34t-10.86-34H566q0,8.84,9.75,14.35t24.84,5.52q14.36,0,22.27-5t7.91-12.69q0-8.1-8.83-11.41t-28.34-6.62a265.51,265.51,0,0,1-36.06-8.28,57.51,57.51,0,0,1-24.84-15.83q-10.49-11.22-10.49-31.83A44.6,44.6,0,0,1,532.29,94.7Q542.4,82,559.71,74.83t38.63-7.18q33.12,0,54.1,16t21,44.34H627.78q0-7.73-9-12.87T597.61,110q-11.79,0-19.69,4.79T570,126.9q0,6.63,8.46,9.94t26.87,6.25a286,286,0,0,1,36.43,8.28,61.3,61.3,0,0,1,25.76,15.83q11,11.22,11,31.09.36,29.44-21.53,44.34t-57.59,14.91A105.44,105.44,0,0,1,560.07,250.36Z"/><rect class="cls-1" x="710.12" y="194.88" width="65.15" height="63.66"/></g></g></svg>