<svg xmlns="http://www.w3.org/2000/svg" width="81.576" height="37.308" viewBox="0 0 81.576 37.308">
  <g id="Capa_2" data-name="Capa 2" transform="translate(17)">
    <g id="f" transform="translate(-17)">
      <path id="Trazado_16" data-name="Trazado 16" d="M746.34,421.514c-.25,14.61-21.983,14.608-22.23,0C724.36,406.9,746.092,406.908,746.34,421.514Zm-11.318-4.68c-6.151.105-6.151,9.255,0,9.36C741.173,426.088,741.172,416.938,735.021,416.834Z" transform="translate(-697.019 -395.197)" fill="#96d3e4"/>
      <path id="Trazado_17" data-name="Trazado 17" d="M687,.9h7.632V38.14H687Z" transform="translate(-661.297 -0.866)" fill="#96d3e4"/>
      <path id="o" d="M1383.279,413.215a11.115,11.115,0,1,1-11.115-11.115A11.114,11.114,0,0,1,1383.279,413.215Zm-11.115-4.68a4.68,4.68,0,1,0,4.68,4.68,4.68,4.68,0,0,0-4.68-4.68Z" transform="translate(-1310.129 -387.056)" fill="#96d3e4"/>
      <g id="i" transform="translate(15.41 0.027)">
        <rect id="Rectángulo_31" data-name="Rectángulo 31" width="7.633" height="22.214" transform="translate(0 15.041)" fill="#96d3e4"/>
        <circle id="Elipse_4" data-name="Elipse 4" cx="3.795" cy="3.795" r="3.795" transform="translate(0.022)" fill="#96d3e4"/>
      </g>
      <path id="fletxa_complet" data-name="fletxa complet" d="M1976.078,322.706l-7.362-3.348a.287.287,0,0,0-.377.141.28.28,0,0,0-.016.189l2.186,8.251a.284.284,0,0,0,.265.211.219.219,0,0,0,.083-.011.284.284,0,0,0,.2-.184l1.279-3.735,3.7-.98a.286.286,0,0,0,.2-.349A.291.291,0,0,0,1976.078,322.706Z" transform="translate(-1894.673 -307.386)" fill="#96d3e4"/>
      <g id="fletxa_complet-2" data-name="fletxa complet" transform="translate(69.239 7.544)">
        <path id="Trazado_18" data-name="Trazado 18" d="M1938.114,204.4a.286.286,0,0,1-.349-.2l-.583-2.2a.285.285,0,0,1,.552-.146l.583,2.2a.286.286,0,0,1-.2.35Z" transform="translate(-1933.937 -201.633)" fill="#96d3e4"/>
        <path id="Trazado_19" data-name="Trazado 19" d="M1853.238,335.372l-2.2.583a.285.285,0,0,1-.146-.552l2.2-.582a.286.286,0,0,1,.149.551Z" transform="translate(-1850.678 -329.829)" fill="#96d3e4"/>
        <path id="Trazado_20" data-name="Trazado 20" d="M1865.511,259.807a.3.3,0,0,1-.217-.028l-1.966-1.143a.287.287,0,0,1,.288-.5l1.967,1.146a.283.283,0,0,1,.1.389.308.308,0,0,1-.175.132Z" transform="translate(-1862.718 -255.989)" fill="#96d3e4"/>
        <path id="Trazado_21" data-name="Trazado 21" d="M1999.24,216.651a.285.285,0,0,1-.348-.2.288.288,0,0,1,.028-.217l1.143-1.969a.285.285,0,1,1,.492.286l-1.142,1.969A.286.286,0,0,1,1999.24,216.651Z" transform="translate(-1993.337 -213.655)" fill="#96d3e4"/>
      </g>
      <path id="Trazado_22" data-name="Trazado 22" d="M7.657,37.308H0V8.284S.1.029,7.657,0h5.112V7.589L8.737,7.575s-1.058.094-1,1.474l-.082,5.92h5.074l.037,6.485L7.657,21.37Z" fill="#96d3e4"/>
    </g>
  </g>
</svg>
