<svg xmlns="http://www.w3.org/2000/svg" width="416.665" height="190.557" viewBox="0 0 416.665 190.557">
  <g id="Capa_2" data-name="Capa 2" transform="translate(17)" opacity="0.12">
    <g id="f" transform="translate(-17)">
      <path id="Trazado_16" data-name="Trazado 16" d="M837.654,466.52c-1.274,74.626-112.281,74.614-113.544,0C725.384,391.892,836.389,391.915,837.654,466.52Zm-57.812-23.9c-31.42.537-31.416,47.273,0,47.806C811.262,489.885,811.256,443.149,779.842,442.616Z" transform="translate(-585.737 -332.102)" fill="#fff"/>
      <path id="Trazado_17" data-name="Trazado 17" d="M687,.9h38.983V191.113H687Z" transform="translate(-555.718 -0.728)" fill="#fff"/>
      <path id="o" d="M1474.591,458.872A56.77,56.77,0,1,1,1417.82,402.1,56.769,56.769,0,0,1,1474.591,458.872Zm-56.771-23.9a23.9,23.9,0,1,0,23.9,23.9,23.9,23.9,0,0,0-23.9-23.9Z" transform="translate(-1100.962 -325.261)" fill="#fff"/>
      <g id="i" transform="translate(78.708 0.136)">
        <rect id="Rectángulo_31" data-name="Rectángulo 31" width="38.985" height="113.462" transform="translate(0 76.825)" fill="#fff"/>
        <circle id="Elipse_4" data-name="Elipse 4" cx="19.383" cy="19.383" r="19.383" transform="translate(0.111)" fill="#fff"/>
      </g>
      <path id="fletxa_complet" data-name="fletxa complet" d="M2007.971,336.562l-37.6-17.1a1.464,1.464,0,0,0-1.924.72,1.43,1.43,0,0,0-.082.967l11.166,42.142a1.45,1.45,0,0,0,1.356,1.078,1.116,1.116,0,0,0,.422-.056,1.452,1.452,0,0,0,1.005-.942l6.532-19.079,18.919-5.007a1.462,1.462,0,0,0,1.036-1.781A1.484,1.484,0,0,0,2007.971,336.562Z" transform="translate(-1592.181 -258.311)" fill="#fff"/>
      <g id="fletxa_complet-2" data-name="fletxa complet" transform="translate(353.653 38.531)">
        <path id="Trazado_18" data-name="Trazado 18" d="M1941.98,215.741a1.46,1.46,0,0,1-1.783-1.043l-2.975-11.233a1.458,1.458,0,1,1,2.818-.747l2.977,11.234a1.463,1.463,0,0,1-1.036,1.789Z" transform="translate(-1920.644 -201.633)" fill="#fff"/>
        <path id="Trazado_19" data-name="Trazado 19" d="M1863.755,337.678l-11.246,2.979a1.458,1.458,0,0,1-.746-2.819L1863,334.863a1.458,1.458,0,1,1,.763,2.815Z" transform="translate(-1850.678 -309.362)" fill="#fff"/>
        <path id="Trazado_20" data-name="Trazado 20" d="M1875.063,266.815a1.5,1.5,0,0,1-1.108-.143l-10.04-5.84a1.464,1.464,0,0,1,1.471-2.532l10.047,5.853a1.445,1.445,0,0,1,.527,1.987,1.568,1.568,0,0,1-.893.675Z" transform="translate(-1860.797 -247.311)" fill="#fff"/>
        <path id="Trazado_21" data-name="Trazado 21" d="M2000.711,227.034a1.456,1.456,0,0,1-1.779-1.022,1.472,1.472,0,0,1,.143-1.11l5.837-10.055a1.454,1.454,0,1,1,2.513,1.462l-5.833,10.057A1.459,1.459,0,0,1,2000.711,227.034Z" transform="translate(-1970.561 -211.736)" fill="#fff"/>
      </g>
      <path id="Trazado_22" data-name="Trazado 22" d="M39.111,190.557H0V42.314S.51.149,39.111,0H65.222V38.763l-20.6-.075s-5.4.482-5.095,7.527l-.418,30.237H65.027l.191,33.124-26.111-.426Z" fill="#fff"/>
    </g>
  </g>
</svg>
