<svg xmlns="http://www.w3.org/2000/svg" width="85.069" height="80.976" viewBox="0 0 85.069 80.976">
  <g id="fletxa_complet" data-name="fletxa complet" transform="translate(-7.421 6.538) rotate(-7)" opacity="0.2">
    <path id="Trazado_18" data-name="Trazado 18" d="M1948.675,235.389a3.492,3.492,0,0,1-4.267-2.5l-7.119-26.876a3.489,3.489,0,0,1,6.744-1.788l7.121,26.881a3.5,3.5,0,0,1-2.479,4.279Z" transform="translate(-1897.625 -201.633)" fill="#96d3e4"/>
    <path id="Trazado_19" data-name="Trazado 19" d="M1881.966,341.669l-26.907,7.129a3.489,3.489,0,0,1-1.785-6.745l26.88-7.119a3.489,3.489,0,0,1,1.826,6.735Z" transform="translate(-1850.678 -273.918)" fill="#96d3e4"/>
    <path id="Trazado_20" data-name="Trazado 20" d="M1891.6,278.951a3.6,3.6,0,0,1-2.65-.343l-24.021-13.973a3.5,3.5,0,0,1,3.52-6.058l24.039,14.006a3.462,3.462,0,0,1,1.262,4.755,3.76,3.76,0,0,1-2.138,1.614Z" transform="translate(-1857.468 -232.282)" fill="#96d3e4"/>
    <path id="Trazado_21" data-name="Trazado 21" d="M2003.259,245.017A3.485,3.485,0,0,1,1999,242.57a3.522,3.522,0,0,1,.342-2.657l13.965-24.06a3.478,3.478,0,1,1,6.013,3.5l-13.958,24.064A3.5,3.5,0,0,1,2003.259,245.017Z" transform="translate(-1931.121 -208.412)" fill="#96d3e4"/>
  </g>
</svg>
